<svg width="1281" height="326" viewBox="0 0 1281 326" fill="none" xmlns="http://www.w3.org/2000/svg">
<g filter="url(#filter0_g_104_101)">
<path d="M206.732 47.1312C266.049 44.5925 364.872 51.0939 366.358 126.449C366.415 127.544 366.457 128.643 366.488 129.744C369.638 116.475 372.574 104.146 375.028 93.9417C378.867 74.5614 387.474 55.3051 409.517 53.7571C433.046 50.9708 466.11 49.7939 484.871 58.2767C511.558 72.1463 509.762 109.545 518.121 134.498C525.18 161.309 534.529 155.736 548.647 136.975C573.971 105.83 593.971 53.5098 641.153 52.8284C664.62 52.3331 710.749 46.9461 721.771 62.178C723.822 67.8192 724.218 73.5043 723.703 79.2855C727.917 63.5008 734.245 51.1652 756.197 52.1507C803.564 51.3458 853.532 52.0888 901.209 51.8411C921.952 51.8411 940.961 51.7788 955.388 51.9026C960.503 51.9418 964.999 52.1806 968.877 52.7249C985.454 51.1438 1006.81 53.5761 1021.46 64.2825C1033.78 72.7653 1041.46 86.5733 1049.01 99.0189C1054.77 108.121 1061.89 118.895 1072.91 117.966C1100.9 110.226 1118.42 74.4373 1145.54 62.4251C1165.97 50.5369 1219.66 47.9979 1232.54 57.719C1235.57 61.3103 1231.61 67.3786 1223 76.3567C1215.76 83.9107 1205.73 93.5083 1194.77 104.22C1167.4 131.526 1136.25 159.575 1110.5 187.5C1090.31 207.809 1090.87 239.326 1070.5 259.201C1055.39 273.505 1026.1 279.324 1010.81 263.411L1010.25 262.792L1010.19 262.731C1001.21 251.833 1004.86 236.477 1006.1 222.793C1009.26 200.75 1001.83 179.513 991.178 160.256C983.272 145.085 972.977 126.168 963.998 109.226C925.832 123.894 811.844 98.6751 795.824 130.477C797.125 159.826 873.593 143.728 894.336 154.316C929.01 168.99 898.238 199.454 863.749 199.701C837.063 202.612 804.741 195.181 781.893 210.909C766.723 221.992 764.556 242.797 750.5 256.79C736.073 271.836 710.006 277.656 691.492 268.307L690.935 267.936V267.997C682.912 262.605 682.651 254.855 684.873 242.987C680.748 255.224 675.443 263.172 664.496 268.056C647.531 275.053 615.581 276.973 610.008 254.62C608.212 245.209 610.689 234.435 612.67 224.652C619.853 192.454 632.051 145.705 634.528 127.935C634.899 124.715 635.58 121.063 634.032 119.081C632.361 117.719 627.964 122.239 621.339 130.969C603.321 153.879 585.364 186.077 564.56 207.748C543.755 229.11 504.685 236.849 483.385 215.054C471.249 202.423 467.967 183.042 464.376 166.2C461.899 157.965 455.274 106.202 446.853 125.83C440.599 140.32 429.949 192.083 421.219 225.951C417.566 239.635 413.293 254.682 401.777 263.351C387.226 274.063 363.139 276.105 347.783 267.746L347.227 267.375H347.164C336.453 259.821 339.053 248.304 343.325 227.933C344.397 223.373 345.556 218.449 346.778 213.253C346.638 213.523 346.499 213.794 346.358 214.063C327.844 252.638 283.511 272.328 234.162 276.538C145.681 283.535 23.5155 280.996 50.5119 159.45L50.76 158.275L50.76 158.151C67.416 74.4992 123.885 49.608 206.732 47.1312ZM234.781 111.712C188.095 114.189 141.656 97.6566 127.538 156.912C108.53 216.292 132.554 214.125 188.466 213.753C213.171 212.763 247.041 217.406 265.802 206.013L266.607 205.456L266.545 205.518C280.353 196.602 284.564 175.736 288.712 159.513C291.127 148.43 294.47 137.346 291.498 126.696C286.792 110.969 262.335 111.774 234.781 111.712Z" fill="#F9FAFB"/>
</g>
<defs>
<filter id="filter0_g_104_101" x="-0.000354767" y="0.000133514" width="1280.25" height="325.451" filterUnits="userSpaceOnUse" color-interpolation-filters="sRGB">
<feFlood flood-opacity="0" result="BackgroundImageFix"/>
<feBlend mode="normal" in="SourceGraphic" in2="BackgroundImageFix" result="shape"/>
<feTurbulence type="fractalNoise" baseFrequency="0.29070752859115601 0.29070752859115601" numOctaves="3" seed="4274" />
<feDisplacementMap in="shape" scale="93.399147033691406" xChannelSelector="R" yChannelSelector="G" result="displacedImage" width="100%" height="100%" />
<feMerge result="effect1_texture_104_101">
<feMergeNode in="displacedImage"/>
</feMerge>
</filter>
</defs>
</svg>
