<svg width="308" height="61" viewBox="0 0 308 61" fill="none" xmlns="http://www.w3.org/2000/svg">
<path d="M1.04275 28.9032C5.32596 7.20816 19.8155 0.754156 41.0697 0.110936C56.2929 -0.543186 81.6361 1.13573 82.0246 20.6722C82.4237 28.3581 80.3846 36.6545 76.889 43.3811C72.1311 53.3892 60.7703 58.4804 48.1041 59.5815C25.4042 61.3912 -5.94849 60.7371 0.978014 29.2194L1.04275 28.9032ZM56.4116 41.1898C59.9504 38.8676 61.0293 33.4711 62.0974 29.263C62.7123 26.3848 63.5755 23.5176 62.8094 20.7485C61.5903 16.682 55.3219 16.8783 48.2552 16.8674C36.2686 17.4997 24.3577 13.2152 20.7326 28.587C15.856 43.9916 22.0165 43.4247 36.3657 43.3157C42.6989 43.0649 51.3947 44.2533 56.2066 41.3097L56.4224 41.168L56.4116 41.1898Z" fill="#FF4E00"/>
<path d="M77.0951 57.2158C74.344 55.2534 75.0129 52.2663 76.1134 46.9897C78.3575 37.3523 82.0581 21.4571 84.259 12.2558C85.2516 7.22998 87.4525 2.23685 93.1167 1.83347C99.1585 1.11394 107.628 0.80868 112.461 2.99999C119.312 6.59766 118.848 16.2896 120.995 22.7654C122.808 29.7209 125.214 28.2709 128.817 23.4086C135.312 15.3302 140.437 1.76806 152.553 1.59363C158.573 1.4628 170.42 0.0673414 173.235 4.02478C174.886 8.62544 172.372 13.3242 171.52 18.5572C169.589 26.7991 167.021 37.7775 165.176 45.6596C163.666 51.9719 162.662 55.5478 158.53 57.4011C154.182 59.2109 145.983 59.7124 144.558 53.9125C144.094 51.4704 144.731 48.6795 145.238 46.1393C147.083 37.7884 150.212 25.6653 150.838 21.0647C150.935 20.2252 151.107 19.2767 150.708 18.7752C150.277 18.4264 149.154 19.5929 147.45 21.8605C142.821 27.813 138.215 36.1531 132.885 41.7676C127.555 47.3058 117.521 49.3227 112.062 43.6646C108.944 40.394 108.113 35.3681 107.175 30.9964C106.527 28.8596 104.834 15.4392 102.676 20.5195C101.079 24.2808 98.3386 37.6902 96.0945 46.4773C95.1558 50.0204 94.0554 53.9234 91.0992 56.1692C87.3662 58.9383 81.1734 59.4725 77.2462 57.3139L77.0951 57.2158Z" fill="#FF4E00"/>
<path d="M307.449 2.83644C304.148 0.318069 290.37 0.972191 285.138 4.05747C278.168 7.18635 273.68 16.464 266.505 18.459C263.678 18.7098 261.833 15.908 260.366 13.5531C258.435 10.3261 256.461 6.76117 253.299 4.54806C249.523 1.76804 237.634 1.35376 236.339 1.35376C232.639 1.31015 227.762 1.34286 222.443 1.33196C210.208 1.39737 197.391 1.20113 185.243 1.41917C177.453 1.07031 177.334 7.31717 175.716 13.4005C174.076 20.3342 172.318 27.7912 170.645 34.8448C169.642 39.0857 168.682 43.1412 167.883 46.5209C166.664 52.2117 165.596 55.406 168.509 57.3902L168.66 57.4774C173.407 59.8977 180.096 58.3932 183.797 54.4794C187.401 50.849 187.951 45.4525 191.846 42.5852C197.704 38.5188 206.001 40.4375 212.841 39.6744C221.688 39.609 229.585 31.7159 220.684 27.9002C215.355 25.1638 195.74 29.3393 195.406 21.7188C199.031 14.4471 222.163 18.6553 234.3 17.1508C236.976 16.8237 239.587 18.1538 240.86 20.5522C242.5 23.6484 244.161 26.7664 245.531 29.4374C248.272 34.4305 250.181 39.936 249.361 45.6487C249.049 49.181 248.099 53.1602 250.408 55.9947L250.548 56.1583C254.475 60.301 261.985 58.7857 265.869 55.0681C271.101 49.9005 270.95 41.7349 276.129 36.4692C282.732 29.2303 290.726 21.9586 297.75 14.8723C300.566 12.0923 303.144 9.6066 305 7.64423C307.201 5.3221 308.226 3.74131 307.438 2.80373L307.449 2.83644Z" fill="#FF4E00"/>
</svg>
