<svg width="308" height="61" viewBox="0 0 308 61" fill="none" xmlns="http://www.w3.org/2000/svg">
<path d="M1.04275 28.9032C5.32596 7.20814 19.8155 0.754141 41.0697 0.110921C56.2929 -0.543201 81.6361 1.13571 82.0246 20.6721C82.4237 28.3581 80.3846 36.6545 76.889 43.3811C72.1311 53.3891 60.7703 58.4804 48.1041 59.5815C25.4042 61.3912 -5.94849 60.7371 0.978014 29.2193L1.04275 28.9032ZM56.4116 41.1898C59.9504 38.8676 61.0293 33.4711 62.0974 29.2629C62.7123 26.3848 63.5755 23.5176 62.8094 20.7485C61.5903 16.682 55.3219 16.8782 48.2552 16.8673C36.2686 17.4997 24.3577 13.2152 20.7326 28.587C15.856 43.9916 22.0165 43.4247 36.3657 43.3157C42.6989 43.0649 51.3947 44.2532 56.2066 41.3097L56.4224 41.168L56.4116 41.1898Z" fill="white"/>
<path d="M77.0951 57.2158C74.344 55.2534 75.0129 52.2663 76.1134 46.9897C78.3575 37.3523 82.0581 21.4571 84.259 12.2558C85.2516 7.22999 87.4525 2.23686 93.1167 1.83349C99.1585 1.11395 107.628 0.808695 112.461 3C119.312 6.59767 118.848 16.2896 120.995 22.7654C122.808 29.7209 125.214 28.2709 128.817 23.4086C135.312 15.3302 140.437 1.76807 152.553 1.59364C158.573 1.46282 170.42 0.0673567 173.235 4.02479C174.886 8.62545 172.372 13.3242 171.52 18.5572C169.589 26.7991 167.021 37.7775 165.176 45.6596C163.666 51.9719 162.662 55.5478 158.53 57.4011C154.182 59.2109 145.983 59.7124 144.558 53.9125C144.094 51.4704 144.731 48.6795 145.238 46.1393C147.083 37.7884 150.212 25.6653 150.838 21.0647C150.935 20.2252 151.107 19.2767 150.708 18.7752C150.277 18.4264 149.154 19.5929 147.45 21.8605C142.821 27.813 138.215 36.1531 132.885 41.7676C127.555 47.3059 117.521 49.3227 112.062 43.6646C108.944 40.394 108.113 35.3681 107.175 30.9964C106.527 28.8596 104.834 15.4392 102.676 20.5196C101.079 24.2808 98.3386 37.6903 96.0945 46.4773C95.1558 50.0205 94.0554 53.9234 91.0992 56.1692C87.3662 58.9383 81.1734 59.4725 77.2462 57.3139L77.0951 57.2158Z" fill="white"/>
<path d="M307.449 2.83642C304.148 0.318053 290.37 0.972176 285.138 4.05745C278.168 7.18633 273.68 16.464 266.505 18.459C263.678 18.7098 261.833 15.908 260.366 13.5531C258.435 10.3261 256.461 6.76115 253.299 4.54804C249.523 1.76802 237.634 1.35375 236.339 1.35375C232.639 1.31014 227.762 1.34284 222.443 1.33194C210.208 1.39735 197.391 1.20112 185.243 1.41916C177.453 1.07029 177.334 7.31716 175.716 13.4005C174.076 20.3342 172.318 27.7912 170.645 34.8448C169.642 39.0857 168.682 43.1412 167.883 46.5209C166.664 52.2117 165.596 55.406 168.509 57.3902L168.66 57.4774C173.407 59.8977 180.096 58.3932 183.797 54.4793C187.401 50.849 187.951 45.4525 191.846 42.5852C197.704 38.5188 206.001 40.4375 212.841 39.6744C221.688 39.609 229.585 31.7159 220.684 27.9002C215.355 25.1638 195.74 29.3393 195.406 21.7187C199.031 14.4471 222.163 18.6553 234.3 17.1508C236.976 16.8237 239.587 18.1538 240.86 20.5522C242.5 23.6484 244.161 26.7664 245.531 29.4374C248.272 34.4305 250.181 39.936 249.361 45.6487C249.049 49.181 248.099 53.1602 250.408 55.9947L250.548 56.1583C254.475 60.301 261.985 58.7856 265.869 55.068C271.101 49.9005 270.95 41.7349 276.129 36.4692C282.732 29.2302 290.726 21.9586 297.75 14.8723C300.566 12.0922 303.144 9.60658 305 7.64422C307.201 5.32209 308.226 3.74129 307.438 2.80372L307.449 2.83642Z" fill="white"/>
</svg>
