<svg width="308" height="89" viewBox="0 0 308 89" fill="none" xmlns="http://www.w3.org/2000/svg">
<g clip-path="url(#clip0_1_2620)">
<path d="M78.1332 87.9249H72.5876L75.3928 70.8414H80.9707C82.6322 70.8414 84.0024 71.1902 85.092 71.888C86.1817 72.5857 86.9369 73.5778 87.3793 74.8751C87.8108 76.1725 87.8864 77.7096 87.5843 79.5085C87.293 81.2637 86.7427 82.7682 85.9012 84.0219C85.0705 85.2757 83.9916 86.235 82.6861 86.911C81.3806 87.5869 79.8594 87.9249 78.144 87.9249H78.1332ZM75.5114 85.6681H78.2411C79.5249 85.6681 80.647 85.4174 81.5856 84.905C82.5351 84.4035 83.3011 83.6622 83.8837 82.7028C84.4771 81.7434 84.8763 80.5769 85.1028 79.2032C85.3186 77.8841 85.3078 76.7721 85.0489 75.8563C84.7899 74.9514 84.2937 74.2537 83.5492 73.7849C82.8048 73.3161 81.823 73.0763 80.5823 73.0763H77.5721L75.5114 85.6572V85.6681Z" fill="white"/>
<path d="M94.7267 70.8305L91.9216 87.914H89.3646L92.1697 70.8305H94.7267Z" fill="white"/>
<path d="M106.907 75.4312C106.918 74.5808 106.648 73.9376 106.109 73.4906C105.569 73.0436 104.803 72.8256 103.843 72.8256C103.153 72.8256 102.527 72.9346 101.987 73.1526C101.448 73.3707 101.006 73.6759 100.66 74.0575C100.326 74.4391 100.11 74.8752 100.024 75.3548C99.959 75.7582 100.002 76.1071 100.142 76.4014C100.283 76.6958 100.498 76.9465 100.779 77.1428C101.06 77.339 101.372 77.5025 101.707 77.6334C102.041 77.7642 102.365 77.8732 102.678 77.9495L104.264 78.3856C104.771 78.5164 105.3 78.7018 105.828 78.9307C106.357 79.1597 106.832 79.454 107.252 79.8356C107.673 80.2062 107.997 80.675 108.202 81.2201C108.407 81.7652 108.45 82.4303 108.331 83.1934C108.169 84.1637 107.781 85.0249 107.166 85.7663C106.551 86.5185 105.742 87.1072 104.739 87.5433C103.735 87.9794 102.581 88.1974 101.254 88.1974C99.9267 88.1974 98.9233 87.9903 98.0602 87.5869C97.1971 87.1835 96.5713 86.6057 96.1613 85.8535C95.7621 85.1013 95.6219 84.2182 95.7298 83.1825H98.2867C98.2328 83.8039 98.3407 84.3163 98.632 84.7197C98.9125 85.134 99.3117 85.4283 99.8296 85.6246C100.347 85.8208 100.93 85.9189 101.588 85.9189C102.311 85.9189 102.969 85.799 103.573 85.57C104.178 85.3411 104.674 85.014 105.062 84.5998C105.451 84.1855 105.688 83.6949 105.785 83.1389C105.871 82.6374 105.807 82.2231 105.58 81.8961C105.354 81.569 105.008 81.3073 104.555 81.1002C104.102 80.8931 103.584 80.6968 103.002 80.5442L101.092 79.9991C99.808 79.6284 98.8262 79.0833 98.1573 78.3529C97.4884 77.6334 97.251 76.674 97.4344 75.4857C97.5963 74.5045 98.0062 73.6432 98.6536 72.9128C99.3009 72.1823 100.11 71.6045 101.081 71.2012C102.052 70.7978 103.099 70.5907 104.231 70.5907C105.364 70.5907 106.357 70.7978 107.155 71.2121C107.964 71.6263 108.558 72.1932 108.935 72.9128C109.324 73.6323 109.453 74.4718 109.335 75.4203H106.875L106.907 75.4312Z" fill="white"/>
<path d="M112.204 73.0545L112.571 70.8305H125.658L125.291 73.0545H120.015L117.566 87.9249H115.02L117.469 73.0545H112.204Z" fill="white"/>
<path d="M125.734 87.9249L128.539 70.8414H134.57C135.876 70.8414 136.933 71.0703 137.721 71.5173C138.508 71.9752 139.058 72.5966 139.361 73.4033C139.663 74.2101 139.717 75.1368 139.555 76.1943C139.382 77.23 139.015 78.1457 138.444 78.9416C137.882 79.7374 137.127 80.3479 136.189 80.7949C135.25 81.2419 134.117 81.4599 132.812 81.4599H128.248L128.626 79.2359H132.963C133.793 79.2359 134.484 79.116 135.034 78.8762C135.584 78.6363 136.027 78.2875 136.35 77.8296C136.663 77.3717 136.879 76.8266 136.987 76.1943C137.084 75.5401 137.052 74.9841 136.89 74.5153C136.728 74.0466 136.404 73.6868 135.919 73.4251C135.444 73.1744 134.786 73.0436 133.945 73.0436H130.74L128.291 87.9249H125.734ZM135.336 80.2171L138.249 87.9249H135.347L132.51 80.2171H135.336Z" fill="white"/>
<path d="M146.136 70.8305L143.33 87.914H140.773L143.579 70.8305H146.136Z" fill="white"/>
<path d="M147.042 87.9248L149.847 70.8414H156.04C157.238 70.8414 158.198 71.0376 158.921 71.441C159.644 71.8444 160.151 72.3786 160.42 73.0545C160.69 73.7304 160.766 74.4935 160.625 75.333C160.507 76.0416 160.269 76.6412 159.935 77.1318C159.6 77.6224 159.191 78.004 158.705 78.2984C158.23 78.5927 157.723 78.7999 157.195 78.9416L157.162 79.1051C157.712 79.1378 158.23 79.3122 158.716 79.6502C159.201 79.9882 159.568 80.4679 159.816 81.0784C160.064 81.6998 160.129 82.452 159.989 83.3351C159.838 84.2073 159.503 84.9922 158.986 85.679C158.468 86.3768 157.756 86.9219 156.839 87.3252C155.932 87.7286 154.821 87.9358 153.516 87.9358H147.031L147.042 87.9248ZM149.955 85.7117H153.634C154.853 85.7117 155.77 85.4719 156.375 84.9922C156.979 84.5125 157.346 83.9129 157.464 83.1934C157.551 82.6592 157.486 82.1577 157.292 81.7107C157.097 81.2637 156.774 80.9039 156.321 80.6314C155.868 80.3588 155.306 80.228 154.616 80.228H150.84L149.934 85.7008L149.955 85.7117ZM151.196 78.2329H154.616C155.188 78.2329 155.727 78.1239 156.224 77.895C156.72 77.6769 157.141 77.3608 157.475 76.9574C157.81 76.554 158.025 76.0743 158.101 75.5292C158.219 74.8206 158.079 74.2319 157.658 73.7522C157.249 73.2725 156.536 73.0327 155.533 73.0327H152.048L151.196 78.2329Z" fill="white"/>
<path d="M175.934 70.8305H178.491L176.646 82.0705C176.452 83.2697 175.999 84.3272 175.287 85.243C174.575 86.1587 173.679 86.8892 172.579 87.4125C171.478 87.9358 170.259 88.1974 168.9 88.1974C167.541 88.1974 166.418 87.9358 165.501 87.4125C164.584 86.8892 163.926 86.1587 163.516 85.243C163.117 84.3272 163.009 83.2588 163.203 82.0705L165.048 70.8305H167.605L165.793 81.8633C165.674 82.6374 165.728 83.3242 165.976 83.9238C166.213 84.5234 166.623 84.9922 167.184 85.3411C167.746 85.679 168.458 85.8535 169.31 85.8535C170.162 85.8535 170.939 85.679 171.619 85.3411C172.298 85.0031 172.859 84.5234 173.291 83.9238C173.723 83.3242 173.992 82.6374 174.122 81.8633L175.934 70.8305Z" fill="white"/>
<path d="M181.017 73.0545L181.384 70.8305H194.471L194.104 73.0545H188.828L186.379 87.9249H183.833L186.282 73.0545H181.017Z" fill="white"/>
<path d="M199.897 70.8305L197.092 87.914H194.535L197.34 70.8305H199.897Z" fill="white"/>
<path d="M216.88 79.5412C216.578 81.3401 216.006 82.8772 215.153 84.1637C214.301 85.4501 213.255 86.4313 212.014 87.1181C210.773 87.805 209.446 88.1538 208.011 88.1538C206.576 88.1538 205.249 87.7941 204.192 87.0745C203.135 86.355 202.379 85.3302 201.926 83.9892C201.473 82.6483 201.398 81.0675 201.7 79.2251C202.002 77.4262 202.574 75.8781 203.426 74.5917C204.278 73.3053 205.336 72.3241 206.576 71.6263C207.817 70.9395 209.166 70.5907 210.611 70.5907C212.057 70.5907 213.352 70.9504 214.398 71.67C215.445 72.3895 216.2 73.4143 216.653 74.7552C217.106 76.0853 217.182 77.6879 216.88 79.5412ZM214.398 79.2251C214.625 77.8514 214.592 76.7067 214.323 75.78C214.042 74.8533 213.568 74.1447 212.899 73.665C212.23 73.1853 211.421 72.9455 210.482 72.9455C209.479 72.9455 208.54 73.2071 207.666 73.7086C206.792 74.2101 206.048 74.9624 205.433 75.9436C204.818 76.9247 204.397 78.124 204.17 79.5303C203.944 80.904 203.976 82.0487 204.246 82.9754C204.526 83.902 205.001 84.5998 205.67 85.0795C206.339 85.5591 207.148 85.7881 208.098 85.7881C209.047 85.7881 210.018 85.5373 210.903 85.0249C211.777 84.5125 212.521 83.7712 213.136 82.8009C213.751 81.8197 214.172 80.6314 214.398 79.2142V79.2251Z" fill="white"/>
<path d="M235.123 70.8305L232.318 87.914H229.976L223.449 75.3766H223.287L221.227 87.914H218.67L221.475 70.8305H223.837L230.376 83.3787H230.537L232.598 70.8305H235.123Z" fill="white"/>
<path d="M1.04665 28.9013C5.32986 7.20622 19.8194 0.752218 41.0736 0.108998C56.2968 -0.545123 81.6401 1.13379 82.0285 20.6702C82.4276 28.3562 80.3885 36.6526 76.8929 43.3792C72.135 53.3872 60.7742 58.4785 48.108 59.5796C25.4081 61.3893 -5.94458 60.7352 0.98192 29.2174L1.04665 28.9013ZM56.4155 41.1878C59.9543 38.8657 61.0332 33.4692 62.1013 29.261C62.7163 26.3829 63.5794 23.5157 62.8134 20.7465C61.5942 16.6801 55.3258 16.8763 48.2591 16.8654C36.2726 17.4977 24.3616 13.2132 20.7365 28.5851C15.8599 43.9897 22.0204 43.4228 36.3697 43.3137C42.7028 43.063 51.3986 44.2513 56.2105 41.3078L56.4263 41.166L56.4155 41.1878Z" fill="white"/>
<path d="M77.0989 57.2138C74.3477 55.2515 75.0167 52.2643 76.1171 46.9877C78.3612 37.3503 82.0618 21.4552 84.2628 12.2539C85.2554 7.22804 87.4563 2.23491 93.1205 1.83153C99.1623 1.112 107.632 0.806742 112.465 2.99805C119.316 6.59572 118.852 16.2876 120.999 22.7634C122.812 29.7189 125.218 28.269 128.821 23.4066C135.316 15.3282 140.441 1.76612 152.557 1.59169C158.577 1.46086 170.423 0.0654036 173.239 4.02284C174.89 8.6235 172.376 13.3223 171.524 18.5552C169.593 26.7972 167.025 37.7755 165.18 45.6577C163.669 51.97 162.666 55.5458 158.534 57.3992C154.186 59.2089 145.986 59.7104 144.562 53.9105C144.098 51.4685 144.735 48.6776 145.242 46.1374C147.087 37.7864 150.216 25.6634 150.841 21.0627C150.938 20.2233 151.111 19.2748 150.712 18.7733C150.28 18.4244 149.158 19.5909 147.454 21.8586C142.825 27.8111 138.218 36.1511 132.889 41.7657C127.559 47.3039 117.525 49.3208 112.066 43.6626C108.948 40.392 108.117 35.3662 107.178 30.9945C106.531 28.8577 104.837 15.4373 102.68 20.5176C101.083 24.2788 98.3424 37.6883 96.0983 46.4753C95.1596 50.0185 94.0591 53.9214 91.103 56.1673C87.37 58.9364 81.1771 59.4706 77.25 57.312L77.0989 57.2138Z" fill="white"/>
<path d="M307.453 2.8345C304.152 0.316131 290.374 0.970253 285.142 4.05553C278.172 7.18441 273.684 16.462 266.509 18.4571C263.682 18.7079 261.837 15.906 260.37 13.5512C258.439 10.3242 256.465 6.75923 253.303 4.54612C249.527 1.7661 237.638 1.35182 236.343 1.35182C232.643 1.30822 227.766 1.34092 222.447 1.33002C210.212 1.39543 197.395 1.1992 185.247 1.41724C177.457 1.06837 177.338 7.31523 175.72 13.3986C174.08 20.3323 172.322 27.7892 170.649 34.8429C169.646 39.0838 168.686 43.1393 167.887 46.5189C166.668 52.2098 165.6 55.4041 168.513 57.3883L168.664 57.4755C173.411 59.8957 180.1 58.3912 183.801 54.4774C187.404 50.847 187.955 45.4505 191.85 42.5833C197.708 38.5168 206.005 40.4356 212.845 39.6725C221.692 39.607 229.589 31.714 220.688 27.8983C215.359 25.1619 195.744 29.3373 195.41 21.7168C199.035 14.4452 222.166 18.6533 234.304 17.1489C236.98 16.8218 239.591 18.1519 240.864 20.5503C242.504 23.6465 244.165 26.7645 245.535 29.4355C248.276 34.4286 250.185 39.9341 249.365 45.6468C249.053 49.179 248.103 53.1583 250.412 55.9928L250.552 56.1563C254.479 60.2991 261.988 58.7837 265.872 55.0661C271.105 49.8986 270.954 41.7329 276.133 36.4673C282.736 29.2283 290.73 21.9567 297.754 14.8703C300.57 12.0903 303.148 9.60466 305.004 7.6423C307.205 5.32016 308.23 3.73937 307.442 2.80179L307.453 2.8345Z" fill="white"/>
</g>
<defs>
<clipPath id="clip0_1_2620">
<rect width="307.711" height="88.2083" fill="white"/>
</clipPath>
</defs>
</svg>
